# xmcd CD database file
#
# Track frame offsets:
#	150
#	21164
#	33550
#	55429
#	68795
#	88134
#	101666
#	119341
#	141191
#	164646
#
# Disc length: 2385 seconds
#
# Revision: 0
# Processed by: cddbd v1.4PL0 Copyright (c) Steve Scherf et al.
# Submitted via: CDex 1.50
#
DISCID=91094f0a
DTITLE=Chuck Adkins - Original Sins
DYEAR=1998
DGENRE=Blues
TTITLE0=Cigar Man
TTITLE1=Badmouth Blues
TTITLE2=Ain't So Bad
TTITLE3=Too Soon
TTITLE4=Hard Way (Of Lovin')
TTITLE5=Pickpocket Mamma
TTITLE6=Nobody's Fool
TTITLE7=What You Got
TTITLE8=Easy Money
TTITLE9=Ya Don't Trust Me
EXTD=YEAR: 1998
EXTT0=
EXTT1=
EXTT2=
EXTT3=
EXTT4=
EXTT5=
EXTT6=
EXTT7=
EXTT8=
EXTT9=
PLAYORDER=
